<?xml version="1.0" standalone="no"?>
<!DOCTYPE svg PUBLIC "-//W3C//DTD SVG 20010904//EN"
 "http://www.w3.org/TR/2001/REC-SVG-20010904/DTD/svg10.dtd">
<svg version="1.0" xmlns="http://www.w3.org/2000/svg"
 width="206.000000pt" height="171.000000pt" viewBox="0 0 206.000000 171.000000"
 preserveAspectRatio="xMidYMid meet">

<g transform="translate(0.000000,171.000000) scale(0.100000,-0.100000)"
fill="#000000" stroke="none">
<path d="M1773 1159 c-74 -15 -123 -74 -123 -149 0 -158 219 -210 290 -69 25
48 25 89 1 138 -32 62 -101 95 -168 80z"/>
<path d="M579 1145 c-53 -19 -115 -62 -144 -100 -20 -27 -295 -605 -295 -621
0 -2 74 -4 164 -4 l163 0 168 358 c92 196 169 363 172 370 7 17 -180 15 -228
-3z"/>
<path d="M859 1139 c-26 -49 -329 -703 -329 -711 0 -5 77 -7 172 -6 l172 3
168 360 c92 198 168 363 168 368 0 4 -76 7 -170 7 -162 0 -170 -1 -181 -21z"/>
<path d="M1103 793 l-171 -368 98 -3 c130 -4 192 19 270 97 51 51 67 80 188
343 73 157 132 289 132 292 0 3 -78 6 -173 6 l-173 0 -171 -367z"/>
</g>
</svg>
